<?xml version="1.0" standalone="no"?>
<!DOCTYPE svg PUBLIC "-//W3C//DTD SVG 20010904//EN"
        "http://www.w3.org/TR/2001/REC-SVG-20010904/DTD/svg10.dtd">
<svg version="1.0" xmlns="http://www.w3.org/2000/svg"
     width="1254.000000pt" height="1254.000000pt"
     viewBox="0 0 1254.000000 1254.000000"
     preserveAspectRatio="xMidYMid meet">
    <metadata>
        Created by potrace 1.16, written by Peter Selinger 2001-2019
    </metadata>
    <g transform="translate(0.000000,1254.000000) scale(0.100000,-0.100000)"
       fill="#ffff" stroke="none">
        <path d="M1670 7651 c-376 -80 -694 -376 -765 -710 -55 -260 45 -530 249 -676
81 -57 195 -110 294 -136 73 -19 115 -20 759 -24 458 -3 696 -8 723 -15 26 -7
58 -27 85 -54 127 -128 46 -356 -153 -428 -43 -16 -127 -17 -987 -18 l-940 0
-275 -270 -275 -269 1210 2 1210 2 78 22 c475 135 803 562 747 972 -36 267
-215 463 -496 547 -53 16 -132 18 -789 23 l-730 6 -49 25 c-28 14 -64 42 -80
63 -29 37 -31 44 -31 126 0 80 3 91 29 131 40 61 82 98 146 129 l55 26 890 3
890 2 175 173 c175 173 265 251 373 322 31 21 57 39 57 41 0 2 -521 4 -1157 3
-1077 0 -1164 -2 -1243 -18z"/>
        <path fill="#7C3AED" d="M4692 7658 c-165 -20 -358 -84 -497 -163 -221 -127 -429 -345 -542
-570 -34 -67 -97 -233 -108 -282 -6 -28 -1 -36 45 -79 98 -92 174 -229 212
-383 33 -132 30 -341 -6 -476 -14 -55 -42 -133 -61 -173 l-35 -74 53 -60 c100
-116 273 -227 439 -282 165 -56 210 -59 903 -61 354 -2 662 1 690 6 87 16 133
47 301 208 126 119 167 164 174 191 7 28 143 900 166 1065 3 22 7 52 10 68 l6
27 -594 0 -593 -1 -259 -254 -259 -255 527 0 c428 0 528 -2 532 -13 3 -8 -11
-122 -31 -256 -19 -133 -35 -244 -35 -246 0 -3 -246 -5 -547 -5 -606 0 -624 2
-755 63 -185 86 -306 232 -359 432 -32 119 -30 279 4 406 67 255 236 460 467
567 158 74 135 72 1017 72 l788 1 275 269 275 270 -1065 -1 c-586 -1 -1098 -6
-1138 -11z"/>
        <path d="M7385 7650 c-192 -41 -342 -119 -479 -249 -83 -80 -144 -164 -190
-262 -54 -114 -70 -187 -70 -319 0 -97 5 -128 27 -195 68 -205 221 -365 433
-452 163 -66 153 -65 864 -72 717 -7 674 -2 738 -75 106 -121 39 -321 -137
-408 l-46 -23 -907 -3 -907 -2 -273 -270 -273 -270 1155 3 c1274 4 1200 0
1367 67 145 58 262 139 379 262 90 94 125 147 179 261 51 109 63 157 71 275 8
108 -7 201 -48 300 -73 176 -231 310 -438 373 -74 23 -83 23 -765 29 l-690 5
-55 30 c-78 43 -114 104 -114 194 1 106 55 185 163 235 45 21 59 21 858 26
l812 5 281 278 281 277 -1063 -1 c-1003 0 -1068 -1 -1153 -19z"/>
        <path d="M10140 7651 c-209 -45 -424 -172 -600 -358 -169 -176 -229 -323 -217
-531 16 -311 226 -552 551 -633 77 -20 116 -21 726 -24 452 -3 654 -7 675 -15
161 -61 186 -270 48 -406 -21 -20 -63 -49 -93 -63 l-55 -26 -847 -5 -847 -5
-47 -70 c-105 -157 -240 -303 -373 -404 l-75 -56 130 -3 c71 -1 554 -1 1074 1
929 3 946 3 1025 24 358 96 646 364 735 683 90 324 -38 632 -322 774 -168 83
-126 79 -898 86 -632 5 -688 6 -725 23 -89 40 -131 113 -123 216 8 112 89 199
225 241 63 19 92 20 787 20 l721 0 275 275 275 275 -970 -1 c-893 0 -977 -2
-1055 -18z"/>
    </g>
</svg>
